<svg width="60" height="60" viewBox="0 0 60 60" fill="none" xmlns="http://www.w3.org/2000/svg">
<circle cx="30" cy="30" r="30" fill="white"/>
<g clip-path="url(#clip0_5_20)">
<path fill-rule="evenodd" clip-rule="evenodd" d="M41.04 30.2614C41.04 29.4459 40.9668 28.6618 40.8309 27.9091H30V32.3575H36.1891C35.9225 33.795 35.1123 35.013 33.8943 35.8284V38.7139H37.6109C39.7855 36.7118 41.04 33.7637 41.04 30.2614Z" fill="#4285F4"/>
<path fill-rule="evenodd" clip-rule="evenodd" d="M30 41.4998C33.105 41.4998 35.7081 40.47 37.6109 38.7137L33.8943 35.8282C32.8645 36.5182 31.5472 36.9259 30 36.9259C27.0047 36.9259 24.4695 34.903 23.5652 32.1848H19.7231V35.1644C21.6154 38.9228 25.5045 41.4998 30 41.4998Z" fill="#34A853"/>
<path fill-rule="evenodd" clip-rule="evenodd" d="M23.5652 32.1851C23.3352 31.4951 23.2045 30.758 23.2045 30.0001C23.2045 29.2421 23.3352 28.5051 23.5652 27.8151V24.8355H19.7232C18.9443 26.388 18.5 28.1444 18.5 30.0001C18.5 31.8557 18.9443 33.6121 19.7232 35.1646L23.5652 32.1851Z" fill="#FBBC05"/>
<path fill-rule="evenodd" clip-rule="evenodd" d="M30 23.0739C31.6884 23.0739 33.2043 23.6541 34.3961 24.7936L37.6945 21.4952C35.7029 19.6395 33.0997 18.5 30 18.5C25.5045 18.5 21.6154 21.0771 19.7231 24.8355L23.5652 27.815C24.4695 25.0968 27.0047 23.0739 30 23.0739Z" fill="#EA4335"/>
</g>
<defs>
<clipPath id="clip0_5_20">
<rect width="24" height="24" fill="white" transform="translate(18 18)"/>
</clipPath>
</defs>
</svg>
