<svg width="60" height="60" viewBox="0 0 60 60" fill="none" xmlns="http://www.w3.org/2000/svg">
<path d="M60 30C60 46.5685 46.5685 60 30 60C13.4315 60 0 46.5685 0 30C0 13.4315 13.4315 0 30 0C46.5685 0 60 13.4315 60 30Z" fill="#FEE500"/>
<path d="M60 30C60 46.5685 46.5685 60 30 60C13.4315 60 0 46.5685 0 30C0 13.4315 13.4315 0 30 0C46.5685 0 60 13.4315 60 30Z" fill="#FEE500"/>
<path d="M29.9914 18C23.3533 18 18 22.6332 18 28.2579C18 31.9089 20.227 35.1059 23.5675 36.9313L22.4368 41.4998C22.4155 41.5681 22.4123 41.6418 22.4274 41.7119C22.4425 41.7823 22.4754 41.847 22.5225 41.8982C22.5911 41.9635 22.6794 41.9998 22.7709 42C22.8467 41.9935 22.9187 41.961 22.9764 41.9074L27.8416 38.3585C28.5597 38.4656 29.2836 38.5212 30.0087 38.5251C36.6382 38.5251 42 33.892 42 28.2579C42 22.6239 36.6209 18 29.9914 18Z" fill="#392020"/>
</svg>
